<?xml version="1.0" standalone="no"?>
<!DOCTYPE svg PUBLIC "-//W3C//DTD SVG 20010904//EN"
 "http://www.w3.org/TR/2001/REC-SVG-20010904/DTD/svg10.dtd">
<svg version="1.0" xmlns="http://www.w3.org/2000/svg"
 width="1419.000000pt" height="491.000000pt" viewBox="0 0 1419.000000 491.000000"
 preserveAspectRatio="xMidYMid meet">
<metadata>
Created by potrace 1.15, written by Peter Selinger 2001-2017
</metadata>
<g transform="translate(0.000000,491.000000) scale(0.100000,-0.100000)"
fill="#000000" stroke="none">
<path d="M1682 3689 c-200 -23 -460 -126 -617 -244 -156 -117 -307 -295 -394
-464 -106 -206 -146 -373 -146 -611 0 -181 14 -267 65 -422 172 -517 650 -878
1191 -903 l114 -5 -96 14 c-567 83 -1005 494 -1126 1056 -25 119 -25 400 0
520 85 399 339 737 687 914 58 30 137 65 176 79 69 25 235 63 304 70 19 2 8 4
-25 4 -33 0 -93 -3 -133 -8z"/>
<path d="M1555 2593 c-214 -201 -417 -390 -450 -421 l-60 -55 80 43 c44 24
248 137 453 251 l374 207 461 -265 c254 -145 473 -271 485 -280 53 -33 22 -1
-129 136 l-159 143 0 164 0 164 -90 0 -89 0 -3 -79 -3 -78 -225 208 c-124 115
-232 213 -240 218 -11 6 -110 -81 -405 -356z"/>
<path d="M12195 2750 c-144 -29 -228 -127 -211 -245 14 -92 78 -148 224 -195
116 -38 168 -64 182 -89 18 -35 12 -80 -16 -108 -23 -23 -31 -25 -101 -21 -72
3 -76 5 -109 41 -19 20 -34 45 -34 55 0 10 -2 21 -5 24 -3 3 -42 -3 -85 -14
-57 -15 -80 -25 -80 -36 0 -33 44 -104 84 -137 65 -53 116 -68 231 -69 83 0
109 4 152 23 165 73 193 273 53 376 -17 13 -88 42 -158 65 -142 47 -172 67
-172 116 0 50 46 84 113 84 65 0 113 -27 133 -76 11 -25 19 -34 32 -30 9 3 40
10 67 17 65 15 69 20 56 61 -16 50 -85 114 -145 137 -61 22 -156 32 -211 21z"/>
<path d="M8815 2736 c-151 -48 -243 -157 -268 -316 -35 -231 95 -420 321 -462
117 -22 264 18 349 95 48 44 101 135 81 142 -7 2 -38 13 -68 25 -68 25 -77 25
-85 1 -11 -34 -77 -90 -128 -107 -111 -37 -224 6 -281 106 -26 46 -30 65 -30
125 -1 84 15 134 57 182 44 50 99 73 175 73 95 0 170 -40 208 -111 l13 -27 68
25 c37 13 72 28 76 32 4 5 -12 37 -36 72 -47 70 -115 119 -201 144 -60 18
-196 18 -251 1z"/>
<path d="M3880 2737 c0 -2 45 -175 100 -386 55 -210 100 -384 100 -386 0 -3
47 -5 104 -5 l105 0 45 143 c24 78 57 184 73 234 15 51 30 93 33 93 3 0 39
-106 80 -235 l73 -235 103 0 c89 0 103 2 108 18 12 39 196 746 196 754 0 5
-37 8 -82 6 l-83 -3 -75 -287 c-41 -158 -77 -282 -81 -275 -4 6 -30 93 -58
192 -29 99 -66 224 -82 278 l-30 97 -69 0 -68 0 -16 -52 c-8 -29 -46 -158 -83
-285 -37 -128 -71 -233 -74 -233 -4 0 -12 21 -18 48 -7 26 -39 154 -73 285
l-61 237 -83 0 c-46 0 -84 -1 -84 -3z"/>
<path d="M5349 2713 c-12 -30 -242 -653 -265 -715 l-13 -38 84 0 83 0 27 80
27 80 166 -2 167 -3 26 -75 26 -75 82 -3 c44 -2 81 1 81 6 0 7 -240 667 -271
745 -11 27 -12 27 -110 27 -99 0 -100 0 -110 -27z m171 -296 c28 -82 50 -151
47 -153 -2 -3 -54 -3 -114 -2 l-110 3 56 157 c30 87 59 154 62 150 4 -4 30
-74 59 -155z"/>
<path d="M5907 2728 c4 -7 63 -101 130 -208 l123 -195 0 -182 0 -183 80 0 80
0 0 191 0 190 118 187 c65 103 122 193 126 200 5 9 -13 12 -82 12 l-88 0 -79
-130 c-68 -113 -80 -128 -90 -113 -6 10 -42 69 -79 131 l-68 112 -90 0 c-69 0
-87 -3 -81 -12z"/>
<path d="M6710 2350 l0 -390 80 0 80 0 2 277 3 278 171 -275 171 -275 94 0 94
0 3 388 2 387 -85 0 -85 0 -2 -269 -3 -269 -168 269 -169 269 -94 0 -94 0 0
-390z"/>
<path d="M7632 2353 l3 -388 228 -3 228 -2 -3 72 -3 73 -142 3 -143 3 0 84 0
85 125 0 125 0 0 70 0 70 -125 0 -125 0 0 90 0 90 145 0 145 0 0 70 0 70 -230
0 -230 0 2 -387z"/>
<path d="M9452 2448 c3 -277 4 -296 25 -340 49 -107 166 -166 308 -155 126 9
207 58 251 152 23 49 24 56 24 343 l0 292 -80 0 -80 0 0 -265 c0 -289 -4 -313
-55 -353 -33 -26 -120 -30 -164 -7 -59 30 -65 62 -69 358 l-4 267 -80 0 -79 0
3 -292z"/>
<path d="M10280 2351 l0 -391 80 0 80 0 0 170 0 170 24 0 c21 0 39 -24 126
-170 l101 -170 95 0 c73 0 93 3 88 13 -4 6 -57 86 -117 175 -59 90 -107 165
-105 166 2 1 22 10 45 20 50 22 77 49 98 98 42 101 -3 230 -98 281 -38 20 -58
22 -229 25 l-188 4 0 -391z m324 245 c42 -18 62 -66 45 -113 -14 -43 -61 -63
-143 -63 l-66 0 0 95 0 95 65 0 c36 0 81 -6 99 -14z"/>
<path d="M10950 2670 l0 -70 90 0 90 0 2 -317 3 -318 78 -3 77 -3 0 321 0 320
95 0 95 0 0 70 0 70 -265 0 -265 0 0 -70z"/>
<path d="M11630 2350 l0 -390 80 0 80 0 0 390 0 390 -80 0 -80 0 0 -390z"/>
<path d="M3218 2395 c-19 -310 -145 -593 -358 -805 -604 -598 -1608 -424
-1975 343 -25 51 -56 130 -69 177 -30 101 -33 79 -7 -40 137 -616 742 -1036
1361 -946 511 75 911 436 1031 931 25 106 40 282 31 375 l-8 75 -6 -110z"/>
<path d="M1787 2393 c-4 -3 -7 -39 -7 -80 l0 -73 75 0 75 0 0 80 0 80 -68 0
c-38 0 -72 -3 -75 -7z"/>
<path d="M1980 2320 l0 -80 75 0 76 0 -3 78 -3 77 -72 3 -73 3 0 -81z"/>
<path d="M1782 2133 l3 -78 73 -3 72 -3 0 81 0 80 -75 0 -76 0 3 -77z"/>
<path d="M1982 2133 l3 -78 73 -3 72 -3 0 81 0 80 -75 0 -76 0 3 -77z"/>
</g>
</svg>
